<svg width="34" height="30" viewBox="0 0 34 30" fill="none" xmlns="http://www.w3.org/2000/svg">
<path d="M8.5 2.5L4.25 7.5V25C4.25 25.663 4.54851 26.2989 5.07986 26.7678C5.61122 27.2366 6.33189 27.5 7.08333 27.5H26.9167C27.6681 27.5 28.3888 27.2366 28.9201 26.7678C29.4515 26.2989 29.75 25.663 29.75 25V7.5L25.5 2.5H8.5Z" stroke="#BEB9B9" stroke-width="2" stroke-linecap="round" stroke-linejoin="round"/>
<path d="M4.25 7.5H29.75" stroke="#BEB9B9" stroke-width="2" stroke-linecap="round" stroke-linejoin="round"/>
<path d="M22.6667 12.5C22.6667 13.8261 22.0697 15.0979 21.007 16.0355C19.9443 16.9732 18.5029 17.5 17 17.5C15.4971 17.5 14.0558 16.9732 12.9931 16.0355C11.9304 15.0979 11.3334 13.8261 11.3334 12.5" stroke="#BEB9B9" stroke-width="2" stroke-linecap="round" stroke-linejoin="round"/>
</svg>
